<svg xmlns="http://www.w3.org/2000/svg" xmlns:xlink="http://www.w3.org/1999/xlink" version="1.1" width="256" height="256" viewBox="0 0 256 256" xml:space="preserve">

<defs>
</defs>
<g style="stroke: none; stroke-width: 0; stroke-dasharray: none; stroke-linecap: butt; stroke-linejoin: miter; stroke-miterlimit: 10; fill: none; fill-rule: nonzero; opacity: 1;" transform="translate(1.4065934065934016 1.4065934065934016) scale(2.81 2.81)" >
	<path d="M 10.22 90 c -3.66 0 -7.184 -2.016 -8.941 -5.508 c -2.481 -4.934 -0.494 -10.945 4.44 -13.427 L 57.536 45 L 5.719 18.935 c -4.934 -2.482 -6.921 -8.493 -4.44 -13.427 c 2.483 -4.933 8.494 -6.92 13.427 -4.44 l 69.576 34.999 c 3.376 1.698 5.506 5.155 5.506 8.933 c 0 3.779 -2.13 7.235 -5.506 8.933 L 14.706 88.932 C 13.264 89.656 11.731 90 10.22 90 z" style="stroke: none; stroke-width: 1; stroke-dasharray: none; stroke-linecap: butt; stroke-linejoin: miter; stroke-miterlimit: 10; fill: rgb(0,0,0); fill-rule: nonzero; opacity: 1;" transform=" matrix(1 0 0 1 0 0) " stroke-linecap="round" />
</g>
</svg>